<?xml version="1.0" standalone="no"?>
<!DOCTYPE svg PUBLIC "-//W3C//DTD SVG 20010904//EN"
 "http://www.w3.org/TR/2001/REC-SVG-20010904/DTD/svg10.dtd">
<svg version="1.0" xmlns="http://www.w3.org/2000/svg"
 width="468.000000pt" height="345.000000pt" viewBox="0 0 468.000000 345.000000"
 preserveAspectRatio="xMidYMid meet">

<g transform="translate(0.000000,345.000000) scale(0.100000,-0.100000)"
fill="#ffffff" stroke="none">
<path d="M1487 3033 c-8 -10 -256 -454 -551 -986 -358 -647 -536 -978 -536
-997 0 -41 409 -781 441 -798 14 -7 182 -26 414 -46 309 -27 395 -32 414 -23
16 9 69 99 180 312 86 165 162 308 167 318 9 15 39 -28 183 -258 95 -151 182
-286 193 -300 l19 -25 394 0 c360 0 394 1 413 18 29 25 1062 2195 1062 2231 0
23 -44 83 -215 290 -119 143 -224 265 -234 271 -25 13 -768 -66 -796 -85 -11
-7 -92 -151 -180 -320 l-159 -307 -19 24 c-11 12 -123 170 -249 350 -126 180
-237 332 -248 338 -11 6 -146 10 -348 10 -301 0 -330 -2 -345 -17z m898 -439
c138 -196 251 -360 253 -364 3 -7 -222 -446 -238 -463 -6 -7 -780 1160 -780
1177 0 3 116 6 258 6 l257 0 250 -356z m1335 340 c0 -18 -1286 -2562 -1292
-2556 -9 9 -339 534 -344 548 -5 10 987 1918 1007 1939 5 6 137 24 292 41 313
35 337 37 337 28z m-1781 -661 c221 -336 401 -614 401 -618 0 -19 -316 -614
-324 -612 -6 2 -68 95 -138 208 -254 404 -243 389 -278 389 -23 0 -35 -7 -50
-32 -11 -18 -170 -297 -352 -620 -183 -324 -334 -588 -337 -588 -4 0 -19 24
-35 53 -245 443 -326 591 -326 597 0 5 986 1792 1017 1843 3 5 9 5 13 0 4 -4
188 -283 409 -620z m2065 415 c97 -117 176 -215 176 -218 -1 -3 -230 -484
-509 -1070 l-509 -1065 -316 -3 c-174 -1 -316 1 -316 4 0 13 1285 2564 1292
2564 4 0 86 -95 182 -212z m-2216 -1479 c89 -141 164 -264 168 -272 4 -13
-312 -636 -334 -659 -6 -5 -652 47 -674 55 -5 2 221 407 623 1116 28 49 32 52
43 35 7 -11 86 -134 174 -275z"/>
</g>
</svg>
