<?xml version="1.0" standalone="no"?>
<!DOCTYPE svg PUBLIC "-//W3C//DTD SVG 20010904//EN"
 "http://www.w3.org/TR/2001/REC-SVG-20010904/DTD/svg10.dtd">
<svg version="1.0" xmlns="http://www.w3.org/2000/svg"
 width="60.000000pt" height="37.000000pt" viewBox="0 0 60.000000 37.000000"
 preserveAspectRatio="xMidYMid meet">

<g transform="translate(0.000000,37.000000) scale(0.100000,-0.100000)"
fill="#000000" stroke="none">
<path d="M176 308 c-13 -24 -44 -80 -69 -124 l-46 -82 27 -51 27 -51 57 0 c56
0 58 1 76 36 l19 37 22 -37 c22 -34 25 -36 77 -36 30 0 54 2 54 4 0 2 29 65
65 140 l65 137 -33 35 c-30 33 -34 34 -80 28 -43 -6 -50 -11 -68 -47 l-21 -40
-30 47 c-28 43 -33 46 -74 46 -40 0 -45 -3 -68 -42z m133 -15 c31 -44 32 -48
19 -77 l-15 -30 -42 62 c-58 85 -59 92 -24 92 23 0 36 -9 62 -47z m161 32 c0
-3 -35 -72 -78 -154 l-78 -149 -21 32 -21 32 65 122 c63 120 65 122 99 122 19
0 34 -2 34 -5z m-213 -75 l47 -71 -20 -41 -20 -41 -22 37 c-12 20 -25 36 -29
36 -4 0 -26 -32 -47 -70 -22 -39 -42 -70 -45 -70 -7 0 -41 58 -41 70 0 15 116
220 125 220 3 0 26 -32 52 -70z m258 50 c14 -16 16 -25 8 -43 -6 -12 -34 -73
-63 -135 l-53 -112 -38 0 c-22 0 -39 3 -39 6 0 12 155 304 161 304 3 0 14 -9
24 -20z m-277 -182 c20 -32 20 -32 1 -70 -18 -36 -22 -38 -65 -38 l-46 0 23
38 c12 20 31 52 41 70 11 17 21 32 23 32 2 0 12 -14 23 -32z"/>
</g>
</svg>
